dummy_motion.mot
nRows=20
nColumns=14

name dummy_motion.mot
datacolumns 14
datarows 20
range 25.0100000000 25.2000000000
endheader
time	first_body_list	first_body_rotation	first_body_tilt	first_body_tx	first_body_ty	first_body_tz	subtalar_angle_r	ankle_angle_r	knee_angle_r	hip_flexion_r	hip_adduction_r	hip_rotation_r	mtp_angle_r
       25.0100000000	        0.0000000000	        0.0000000000	        0.0000000000	        0.0000000000	        0.0000000000	        0.0000000000	        0.0000000000	      -24.1777635205	        6.2239621812	       84.4765192082	       28.1998333217	        3.3995356074	        0.0000000000	
       25.0200000000	        0.0000000000	        0.0000000000	        0.0000000000	        0.0000000000	        0.0000000000	        0.0000000000	        0.0000000000	       46.4388704896	      -32.2502777571	       24.5394772401	        1.3999451138	      -12.6210882564	        0.0000000000	
       25.0300000000	        0.0000000000	        0.0000000000	        0.0000000000	        0.0000000000	        0.0000000000	        0.0000000000	        0.0000000000	       -7.7729764968	      -76.0997854572	       86.8228816946	       14.1385925731	       33.2935847303	        0.0000000000	
       25.0400000000	        0.0000000000	        0.0000000000	        0.0000000000	        0.0000000000	        0.0000000000	        0.0000000000	        0.0000000000	       21.1595470240	      -33.4640554118	      -16.0033264014	       27.4861357407	       27.0169901859	        0.0000000000	
       25.0500000000	        0.0000000000	        0.0000000000	        0.0000000000	        0.0000000000	        0.0000000000	        0.0000000000	        0.0000000000	       49.8534117267	     -114.6515443230	      -64.4591269091	      -39.9945592975	      -30.0069872981	        0.0000000000	
       25.0600000000	        0.0000000000	        0.0000000000	        0.0000000000	        0.0000000000	        0.0000000000	        0.0000000000	        0.0000000000	       21.3969442292	      -63.1165783220	       40.7423493094	        7.8071127480	      -30.2390323668	        0.0000000000	
       25.0700000000	        0.0000000000	        0.0000000000	        0.0000000000	        0.0000000000	        0.0000000000	        0.0000000000	        0.0000000000	       44.2798338173	      -99.0478064078	       -3.6344986631	        4.3618507534	       -2.8006840591	        0.0000000000	
       25.0800000000	        0.0000000000	        0.0000000000	        0.0000000000	        0.0000000000	        0.0000000000	        0.0000000000	        0.0000000000	       47.8990608937	        9.8897725573	       93.4740303455	      -14.1426803693	       34.7748871136	        0.0000000000	
       25.0900000000	        0.0000000000	        0.0000000000	        0.0000000000	        0.0000000000	        0.0000000000	        0.0000000000	        0.0000000000	      -26.2486615184	      -99.9091109420	       51.0653123565	      -26.3927308702	       29.9281014645	        0.0000000000	
       25.1000000000	        0.0000000000	        0.0000000000	        0.0000000000	        0.0000000000	        0.0000000000	        0.0000000000	        0.0000000000	        0.2116575637	     -105.2008149286	       24.4526272173	      -38.0413784141	       -3.7645140188	        0.0000000000	
       25.1100000000	        0.0000000000	        0.0000000000	        0.0000000000	        0.0000000000	        0.0000000000	        0.0000000000	        0.0000000000	       19.9759154589	     -109.2215279760	       72.1111136568	       16.4020200773	      -14.8714474856	        0.0000000000	
       25.1200000000	        0.0000000000	        0.0000000000	        0.0000000000	        0.0000000000	        0.0000000000	        0.0000000000	        0.0000000000	      -11.8664760037	      -52.0868374565	      -49.1477579305	      -38.4252234236	        6.7827198069	        0.0000000000	
       25.1300000000	        0.0000000000	        0.0000000000	        0.0000000000	        0.0000000000	        0.0000000000	        0.0000000000	        0.0000000000	       22.9776091266	      -68.2095286190	       79.3571176775	       25.3658408744	        2.1470939651	        0.0000000000	
       25.1400000000	        0.0000000000	        0.0000000000	        0.0000000000	        0.0000000000	        0.0000000000	        0.0000000000	        0.0000000000	       38.4329190547	      -77.8096859198	      -38.8035204583	      -36.3905496713	      -19.8943728791	        0.0000000000	
       25.1500000000	        0.0000000000	        0.0000000000	        0.0000000000	        0.0000000000	        0.0000000000	        0.0000000000	        0.0000000000	       38.9274229989	      -25.2264311650	      -53.2324578002	       11.0641263743	       23.6826345535	        0.0000000000	
       25.1600000000	        0.0000000000	        0.0000000000	        0.0000000000	        0.0000000000	        0.0000000000	        0.0000000000	        0.0000000000	       -3.0323608118	      -30.3432185457	      -60.8046910700	      -15.1464372141	       31.6630992234	        0.0000000000	
       25.1700000000	        0.0000000000	        0.0000000000	        0.0000000000	        0.0000000000	        0.0000000000	        0.0000000000	        0.0000000000	      -36.2529905330	       -1.2437580986	       72.5745793074	      -23.2746172384	      -29.0982311168	        0.0000000000	
       25.1800000000	        0.0000000000	        0.0000000000	        0.0000000000	        0.0000000000	        0.0000000000	        0.0000000000	        0.0000000000	      -28.7618411818	      -57.8921830770	       57.7117887758	        5.6777623286	      -21.6353961702	        0.0000000000	
       25.1900000000	        0.0000000000	        0.0000000000	        0.0000000000	        0.0000000000	        0.0000000000	        0.0000000000	        0.0000000000	      -54.7414156136	      -84.9110962251	      -29.2820464157	       23.0819554755	      -38.2024101578	        0.0000000000	
       25.2000000000	        0.0000000000	        0.0000000000	        0.0000000000	        0.0000000000	        0.0000000000	        0.0000000000	        0.0000000000	       55.2472188643	     -108.9602617209	      -48.6780531203	        0.5678874018	      -15.8758116430	        0.0000000000	
